# xmcd CD database file
#
# Track frame offsets:
#	150
#	34897
#	53448
#	87805
#	111748
#	142106
#	164990
#
# Disc length: 2472 seconds
#
# Revision: 0
# Processed by: cddbd v1.5.1PL0 Copyright (c) Steve Scherf et al.
# Submitted via: CDex 1.51
#
DISCID=6509a607
DTITLE=Lionel Hampton - Hampton Hits
DYEAR=1964
DGENRE=Jazz
TTITLE0=Stardust
TTITLE1=Tenderly - Midnight Sun
TTITLE2=The Nearness Of You
TTITLE3='Round Midnight
TTITLE4=How High The Moon
TTITLE5=Gates Gone Blue
TTITLE6=King David
EXTD=YEAR: 1964
EXTT0=
EXTT1=
EXTT2=
EXTT3=
EXTT4=
EXTT5=
EXTT6=
PLAYORDER=
